# Blender 4.0.1
# www.blender.org
mtllib box_test_03.mtl
o Cube
v 2.625437 -1.000000 1.000000
v 2.625437 -1.000000 1.000000
v 2.625437 -1.000000 1.000000
v 2.625437 1.000000 1.000000
v 2.625437 1.000000 1.000000
v 2.625437 1.000000 1.000000
v 2.625437 -1.000000 -1.000000
v 2.625437 -1.000000 -1.000000
v 2.625437 -1.000000 -1.000000
v 2.625437 1.000000 -1.000000
v 2.625437 1.000000 -1.000000
v 2.625437 1.000000 -1.000000
v 4.625437 -1.000000 1.000000
v 4.625437 -1.000000 1.000000
v 4.625437 -1.000000 1.000000
v 4.625437 1.000000 1.000000
v 4.625437 1.000000 1.000000
v 4.625437 1.000000 1.000000
v 4.625437 -1.000000 -1.000000
v 4.625437 -1.000000 -1.000000
v 4.625437 -1.000000 -1.000000
v 4.625437 1.000000 -1.000000
v 4.625437 1.000000 -1.000000
v 4.625437 1.000000 -1.000000
vn -1.0000 -0.0000 -0.0000
vn -0.0000 -0.0000 -1.0000
vn 1.0000 -0.0000 -0.0000
vn -0.0000 -0.0000 1.0000
vn -0.0000 -1.0000 -0.0000
vn -0.0000 1.0000 -0.0000
vt 0.375000 0.000000
vt 0.625000 0.000000
vt 0.625000 0.250000
vt 0.375000 0.250000
vt 0.625000 0.500000
vt 0.375000 0.500000
vt 0.625000 0.750000
vt 0.375000 0.750000
vt 0.625000 1.000000
vt 0.375000 1.000000
vt 0.125000 0.500000
vt 0.125000 0.750000
vt 0.875000 0.500000
vt 0.875000 0.750000
s 0
f 1/1/1 4/2/1 10/3/1
f 1/1/1 10/3/1 7/4/1
f 9/4/2 11/3/2 22/5/2
f 9/4/2 22/5/2 20/6/2
f 21/6/3 24/5/3 18/7/3
f 21/6/3 18/7/3 15/8/3
f 14/8/4 16/7/4 5/9/4
f 14/8/4 5/9/4 3/10/4
f 8/11/5 19/6/5 13/8/5
f 8/11/5 13/8/5 2/12/5
f 23/5/6 12/13/6 6/14/6
f 23/5/6 6/14/6 17/7/6
o Cube.001
v -2.018217 2.543007 0.946781
v -2.018217 2.543007 0.946781
v -2.018217 2.543007 0.946781
v -2.236016 1.290527 1.177374
v -2.236016 1.290527 1.177374
v -2.236016 1.290527 1.177374
v -1.708419 2.133269 -0.986129
v -1.708419 2.133269 -0.986129
v -1.708419 2.133269 -0.986129
v -1.926218 0.880790 -0.755536
v -1.926218 0.880790 -0.755536
v -1.926218 0.880790 -0.755536
v -0.071333 2.272462 1.316169
v -0.071333 2.272462 1.316169
v -0.071333 2.272462 1.316169
v -0.289132 1.019983 1.546762
v -0.289132 1.019983 1.546762
v -0.289132 1.019983 1.546762
v 0.238466 1.862724 -0.616741
v 0.238466 1.862724 -0.616741
v 0.238466 1.862724 -0.616741
v 0.020667 0.610245 -0.386148
v 0.020667 0.610245 -0.386148
v 0.020667 0.610245 -0.386148
vn -0.9734 0.1353 -0.1847
vn 0.1549 -0.2049 -0.9665
vn 0.9734 -0.1353 0.1847
vn -0.1549 0.2049 0.9665
vn 0.1686 0.9694 -0.1785
vn -0.1686 -0.9694 0.1785
vt 0.375000 0.000000
vt 0.625000 0.000000
vt 0.625000 0.250000
vt 0.375000 0.250000
vt 0.625000 0.500000
vt 0.375000 0.500000
vt 0.625000 0.750000
vt 0.375000 0.750000
vt 0.625000 1.000000
vt 0.375000 1.000000
vt 0.125000 0.500000
vt 0.125000 0.750000
vt 0.875000 0.500000
vt 0.875000 0.750000
s 0
f 25/15/7 34/17/7 28/16/7
f 25/15/7 31/18/7 34/17/7
f 33/18/8 46/19/8 35/17/8
f 33/18/8 44/20/8 46/19/8
f 45/20/9 42/21/9 48/19/9
f 45/20/9 39/22/9 42/21/9
f 38/22/10 29/23/10 40/21/10
f 38/22/10 27/24/10 29/23/10
f 32/25/11 37/22/11 43/20/11
f 32/25/11 26/26/11 37/22/11
f 47/19/12 30/28/12 36/27/12
f 47/19/12 41/21/12 30/28/12
