ply
format ascii 1.0
comment https://github.com/mikedh/trimesh
element vertex 36
property float x
property float y
property float z
element face 12
property list uchar int vertex_indices
end_header
0.63671875 0.31640625 -0.81640625
-0.12109375 0.68359375 -0.81640625
0.12109375 -0.99609375 -0.62890625
0.99609375 0.99609375 0.99609375
-0.19140625 0.62109375 0.38671875
0.74609375 -0.99609375 0.22265625
0.69140625 0.96484375 -0.41796875
0.04296875 0.42578125 0.45703125
-0.91796875 0.46484375 0.66796875
-0.65234375 -0.65234375 -0.41796875
-0.36328125 0.99609375 -0.69140625
0.12109375 -0.99609375 0.90234375
-0.99609375 0.51171875 0.99609375
0.53515625 0.18359375 -0.19140625
0.12109375 -0.99609375 0.04296875
-0.62109375 0.99609375 0.99609375
0.48828125 -0.95703125 -0.19140625
0.12109375 -0.60546875 -0.18359375
0.99609375 0.96484375 0.38671875
0.53515625 0.99609375 0.38671875
0.12109375 0.46484375 -0.18359375
0.30078125 -0.65234375 0.99609375
0.53515625 -0.55078125 0.45703125
0.82421875 0.46484375 0.66796875
-0.65234375 0.51171875 0.99609375
0.07421875 -0.88671875 0.05859375
-0.72265625 0.22265625 -0.02734375
0.30078125 -0.22265625 -0.41796875
0.73046875 -0.56640625 0.05859375
0.12109375 0.91796875 -0.67578125
0.99609375 -0.65234375 0.51953125
-0.22265625 0.18359375 0.05859375
-0.26171875 0.46484375 0.04296875
-0.59765625 0.53515625 0.60546875
-0.40234375 0.42578125 0.05859375
-0.66015625 -0.28515625 -0.27734375
3 0 1 2
3 3 4 5
3 6 7 8
3 9 10 11
3 12 13 14
3 15 16 17
3 18 19 20
3 21 22 23
3 24 25 26
3 27 28 29
3 30 31 32
3 33 34 35